<svg width="581" height="430" viewBox="0 0 581 430" fill="none" xmlns="http://www.w3.org/2000/svg">
<g clip-path="url(#clip0_26_777)">
<path d="M526.096 428.008H402.905V424.231C402.905 420.952 404.208 417.807 406.529 415.488C408.85 413.169 411.998 411.867 415.28 411.867H513.72C517.003 411.867 520.151 413.169 522.472 415.488C524.793 417.807 526.096 420.952 526.096 424.231V428.008Z" fill="#E6E6E6"/>
<path d="M461.618 412.62L465.364 411.113C426.165 313.902 429.941 191.264 463.077 86.061C467.013 73.8718 467.297 60.7989 463.894 48.4506C460.49 36.1023 453.549 25.0173 443.922 16.5593C424.689 -0.588371 398.174 -4.7657 374.719 5.65642C351.568 15.9455 348.377 33.8677 348.377 51.7025H352.416C352.416 32.6647 356.488 18.1756 376.361 9.3436C398.343 -0.423839 423.2 3.49389 441.232 19.5707C450.274 27.5145 456.795 37.9259 459.991 49.5239C463.188 61.1219 462.921 73.4006 459.224 84.8492C425.706 191.266 422.151 314.748 461.618 412.62Z" fill="#E6E6E6"/>
<path d="M351.406 111.225C359.214 111.225 365.543 104.902 365.543 97.1014C365.543 89.3009 359.214 82.9773 351.406 82.9773C343.599 82.9773 337.269 89.3009 337.269 97.1014C337.269 104.902 343.599 111.225 351.406 111.225Z" fill="#E6E6E6"/>
<path d="M329.634 121.724V94.9619H333.799V121.724C334.994 122.207 335.983 123.089 336.598 124.221C337.212 125.353 337.414 126.663 337.168 127.927C336.922 129.191 336.243 130.33 335.249 131.149C334.254 131.968 333.005 132.415 331.717 132.415C330.428 132.415 329.179 131.968 328.185 131.149C327.19 130.33 326.512 129.191 326.266 127.927C326.019 126.663 326.221 125.353 326.835 124.221C327.45 123.089 328.439 122.207 329.634 121.724Z" fill="#E6E6E6"/>
<path d="M309.501 74.4018C309.508 68.2499 311.957 62.3519 316.311 58.0019C320.665 53.6518 326.568 51.2049 332.725 51.1979H371.097C377.256 51.1979 383.164 53.6426 387.519 57.9942C391.875 62.3457 394.321 68.2477 394.321 74.4018C394.321 80.5558 391.875 86.4578 387.519 90.8094C383.164 95.1609 377.256 97.6056 371.097 97.6056H332.725C326.568 97.5986 320.665 95.1517 316.311 90.8017C311.957 86.4516 309.508 80.5537 309.501 74.4018Z" fill="#98F286"/>
<path d="M255.437 218.095C259.29 168.85 278.988 145.387 266.375 130.673C254.293 116.579 220.261 119.49 198.405 133.014C139.455 169.493 117.858 314.88 193.718 385.914C265.804 453.413 402.421 431.795 432.782 376.547C439.866 363.656 445.494 341.058 435.126 327.372C409.385 293.394 315.797 354.938 274.187 316.444C249.528 293.632 253.323 245.12 255.437 218.095Z" fill="#7F867E"/>
<path d="M300.499 193.629C299.067 194.287 297.949 195.478 297.382 196.947C296.816 198.416 296.845 200.048 297.464 201.496C297.595 201.789 297.749 202.07 297.926 202.337L285.273 219.216L291.587 228.644L306.418 203.649C307.469 202.831 308.218 201.687 308.551 200.398C308.883 199.109 308.778 197.746 308.254 196.522C307.948 195.829 307.509 195.202 306.962 194.678C306.414 194.154 305.768 193.743 305.062 193.468C304.355 193.193 303.601 193.061 302.843 193.077C302.085 193.093 301.338 193.259 300.644 193.564C300.595 193.585 300.547 193.607 300.499 193.629Z" fill="#FFB6B6"/>
<path d="M300.489 222.732C301.317 223.466 299.02 224.371 296.591 222.943C295.895 222.529 295.598 222.357 295.52 222.467C295.325 222.74 296.466 224.754 296.161 229.226C295.973 231.896 291.536 236.915 286.497 241.809C279.684 248.428 271.762 254.813 271.762 254.813L268.981 252.588L239.817 229.226L234.895 222.42C235.346 219.732 236.022 217.087 236.918 214.513C238.152 210.95 239.619 207.471 241.309 204.1C242.215 202.266 243.145 200.517 244.036 198.91L259.661 216.113L272.755 230.522C272.755 230.522 276.567 224.387 279.52 222.716C279.897 222.476 280.325 222.329 280.77 222.287C283.755 222.147 283.934 220.523 280.473 216.987C277.012 213.451 281.38 216.753 284.458 215.801C287.536 214.848 284.458 215.801 285.106 213.42C285.755 211.039 294.388 206.262 294.388 206.262L294.747 206.582L301.27 212.335L303.138 213.982C303.138 213.982 301.099 219.571 300.536 220.749C299.973 221.928 299.669 221.991 300.489 222.732Z" fill="#98F286"/>
<path d="M472.457 331.163L472.775 322.553L439.688 317.231L439.218 329.937L472.457 331.163Z" fill="#FFB6B6"/>
<path d="M466.451 333.755L466.137 319.97L472.035 320.187L481.558 307.443C482.028 306.814 482.688 306.351 483.44 306.123C484.192 305.894 484.997 305.912 485.739 306.173C486.48 306.434 487.119 306.925 487.561 307.575C488.003 308.224 488.226 308.998 488.197 309.783L487.592 326.159L481.654 328.766L487.447 330.083L487.219 336.258L466.451 333.755Z" fill="#2F2E41"/>
<path d="M286.237 334.515L391.037 337.17C391.037 337.17 436.294 339.782 446.912 332.88L458.109 331.468L458.716 315.035C458.716 315.035 451.869 315.086 447.932 313.253C443.995 311.421 446.731 309.178 442.978 311.383C439.225 313.588 439.621 313.853 436.719 312.84C433.817 311.827 300.742 291.561 300.742 291.561L286.237 334.515Z" fill="#2F2E41"/>
<path d="M424.336 327.384L430.43 321.289L409.797 294.903L400.803 303.9L424.336 327.384Z" fill="#FFB6B6"/>
<path d="M418.168 322.081L427.323 311.762L431.499 315.93L447.155 313.058C447.928 312.916 448.727 313.025 449.434 313.368C450.141 313.712 450.719 314.272 451.085 314.967C451.451 315.663 451.584 316.457 451.466 317.233C451.348 318.01 450.985 318.729 450.43 319.284L438.839 330.878L432.71 328.754L436.061 333.657L431.69 338.028L418.168 322.081Z" fill="#2F2E41"/>
<path d="M244.891 277.171L245.933 301.368C247.159 329.853 278.557 347.094 302.904 332.221C303.353 331.947 303.803 331.663 304.255 331.369C304.255 331.369 313.485 328.893 313.205 324.971C312.925 321.049 315.179 319.14 317.175 320.21C319.17 321.279 345.297 284.234 345.297 284.234C345.297 284.234 399.58 311.287 411.555 317.655C411.555 317.655 422.814 300.067 421.998 300.251C421.182 300.436 354.843 254.046 354.843 254.046C354.843 254.046 344.036 243.119 330.63 250.334C330.351 251.394 330.59 251.431 330.59 251.431L286.305 287.483L280.047 275.61L244.891 277.171Z" fill="#2F2E41"/>
<path d="M286.645 246.921C286.561 248.039 286.402 249.15 286.169 250.247C285.85 251.834 285.336 253.375 284.638 254.836C284.638 254.836 284.638 256.468 281.513 261.932C278.387 267.395 282.294 265.054 284.638 269.113C286.981 273.164 284.638 271.298 282.036 273.905C281.287 274.664 280.755 275.609 280.495 276.643C280.236 277.676 280.258 278.761 280.559 279.783C280.559 279.783 246.997 279.806 240.747 277.465C234.497 275.123 233.075 261.932 238.676 260.628C244.27 259.324 236.981 258.029 233.692 255.024C230.403 252.018 236.981 247.101 236.981 247.101C236.981 247.101 234.27 242.426 234.496 226.729C234.528 225.285 234.662 223.845 234.895 222.42C235.346 219.732 236.022 217.087 236.918 214.513C238.152 210.95 239.619 207.471 241.309 204.1C242.215 202.266 243.145 200.518 244.036 198.91C244.176 198.66 244.309 198.418 244.45 198.176C246.145 195.179 247.692 192.728 248.715 191.159C249.504 189.941 249.981 189.254 249.981 189.254L255.669 179.372L274.653 188.263L273.575 202.805L276.848 213.771L278.356 218.822L279.52 222.716L281.317 228.75C281.317 228.75 280.825 228.774 281.411 229.578C284.109 233.162 285.859 237.369 286.497 241.809C286.722 243.503 286.772 245.217 286.645 246.921Z" fill="#98F286"/>
<path d="M341.47 248.489L341.114 248.374L295.675 233.755L312.419 178.873C312.753 177.78 313.33 176.777 314.108 175.939C314.886 175.102 315.844 174.451 316.91 174.038C317.975 173.624 319.121 173.457 320.261 173.55C321.401 173.643 322.505 173.993 323.489 174.574L352.526 191.714C354.825 193.07 356.574 195.189 357.467 197.702C358.36 200.214 358.342 202.961 357.414 205.461L341.47 248.489Z" fill="#2F2E41"/>
<path d="M341.655 251.978L295.851 237.241L312.594 182.359C312.928 181.266 313.505 180.263 314.283 179.425C315.061 178.588 316.019 177.938 317.085 177.524C318.151 177.11 319.297 176.943 320.436 177.036C321.576 177.129 322.68 177.48 323.665 178.061L354.088 193.237C358.659 195.934 358.552 202.915 356.429 208.643L341.655 251.978Z" fill="#98F286"/>
<path d="M337.069 255.95C336.014 256.544 334.847 256.913 333.642 257.033C332.437 257.153 331.22 257.021 330.069 256.646L300.792 247.226C298.546 246.493 296.675 244.911 295.581 242.819C294.486 240.726 294.253 238.289 294.933 236.028L309.611 187.917C309.904 186.956 310.387 186.063 311.03 185.29C311.673 184.518 312.464 183.882 313.357 183.419C314.25 182.956 315.226 182.676 316.228 182.595C317.231 182.514 318.239 182.633 319.195 182.947L349.535 192.9C350.98 193.374 352.316 194.133 353.464 195.131C354.611 196.13 355.546 197.348 356.214 198.714C356.882 200.08 357.269 201.565 357.353 203.083C357.437 204.601 357.215 206.12 356.701 207.551L341.008 251.265C340.303 253.25 338.904 254.914 337.069 255.95Z" fill="#3F3D56"/>
<path d="M273.58 179.541C285.161 179.541 294.549 170.161 294.549 158.59C294.549 147.02 285.161 137.64 273.58 137.64C261.999 137.64 252.61 147.02 252.61 158.59C252.61 170.161 261.999 179.541 273.58 179.541Z" fill="#FFB6B6"/>
<path d="M202.67 179.857C204.595 183.583 207.75 186.53 211.601 188.198C213.138 188.897 214.754 189.408 216.414 189.72C216.883 187.861 217.634 186.084 218.641 184.452C218.305 186.292 218.305 188.177 218.641 190.016C221.17 190.223 223.714 189.907 226.115 189.089C228.474 188.288 230.613 186.948 232.363 185.177C234.113 183.406 235.425 181.251 236.197 178.885C237.867 173.332 236.068 167.4 235.926 161.603C235.78 155.806 238.536 148.872 244.296 148.155C248.682 147.608 248.14 148.033 251.292 151.129C246.883 156.022 257.632 177.696 263.399 176.738C266.66 176.197 269.06 173.61 269.705 173.7C273.007 181.78 263.073 193.241 270.952 197.003L270.368 196.23C266.243 189.423 278.447 177.926 274.323 171.118C273.173 169.214 271.977 166.982 272.689 164.875C273.364 162.872 276.783 162.238 277.505 164.061C276.332 159.883 279.606 154.979 283.954 154.552C287.817 154.172 287.594 155.272 291.277 156.275C291.747 154.69 292.426 153.174 293.294 151.766C293 153.372 292.964 155.015 293.186 156.632C294.515 156.791 295.858 156.506 297.009 155.824C300.41 153.787 300.511 148.528 298.174 145.328C295.834 142.127 291.913 140.547 288.131 139.351C288.096 131.359 266.572 127.533 262.613 134.963C262.206 128.947 255.303 124.894 249.357 125.916C243.411 126.938 238.72 131.702 235.86 137.012C233 142.317 231.581 148.258 229.487 153.909C227.394 159.56 224.402 165.195 219.389 168.548C214.377 171.897 206.928 172.201 202.743 167.861C201.789 169.714 201.285 171.766 201.272 173.85C201.26 175.934 201.739 177.992 202.67 179.857Z" fill="#2F2E41"/>
<path d="M224.187 275.663C224.621 275.317 225.091 275.019 225.591 274.775C233.617 270.784 258.577 260.424 278.094 260.849C315.645 261.667 363.435 303.073 352.313 330.879C343.85 352.036 301.775 364.074 271.062 354.446C228.036 340.959 211.053 286.126 224.187 275.663Z" fill="#3F3D56"/>
<path d="M68.2936 428.088C56.0232 425.775 45.1616 370.545 69.3034 343.343C77.5747 334.024 87.892 329.968 101.616 326.193C180.607 304.466 240.855 325.173 248.951 330.228C257.029 335.273 271.191 411.276 253.082 422.035C242.892 428.088 222.697 431.115 212.691 424.053C197.967 413.661 222.681 386.708 211.681 368.565C199.199 347.977 133.469 341.042 100.515 361.503C65.3563 383.333 137.876 441.203 68.2936 428.088Z" fill="#F2F2F2"/>
<path d="M150.332 334.184H103.455C91.8825 323.104 83.6085 312.425 90.2328 303.561C90.2328 301.013 91.2459 298.569 93.0492 296.768C94.8525 294.966 97.2983 293.954 99.8486 293.954H153.938C156.488 293.954 158.934 294.966 160.737 296.768C162.541 298.569 163.554 301.013 163.554 303.561C166.076 313.661 161.57 323.87 150.332 334.184Z" fill="#CCCCCC"/>
<path d="M141.913 281.859C141.468 281.88 141.028 281.763 140.652 281.525C140.276 281.287 139.982 280.939 139.81 280.529C139.638 280.118 139.597 279.665 139.692 279.231C139.786 278.796 140.012 278.401 140.339 278.099L140.488 277.508C140.469 277.46 140.449 277.413 140.429 277.366C139.981 276.308 139.23 275.407 138.271 274.774C137.312 274.142 136.187 273.807 135.037 273.811C133.888 273.815 132.766 274.159 131.811 274.798C130.857 275.438 130.112 276.345 129.672 277.406C127.913 281.639 125.673 285.88 125.121 290.356C124.879 292.335 124.981 294.341 125.424 296.284C121.292 287.278 119.146 277.49 119.133 267.583C119.132 265.097 119.27 262.613 119.547 260.142C119.775 258.117 120.093 256.106 120.498 254.109C122.713 243.276 127.468 233.123 134.374 224.482C137.716 222.66 140.418 219.859 142.118 216.455C142.733 215.231 143.168 213.925 143.409 212.577C143.032 212.626 141.988 206.89 142.272 206.538C141.747 205.741 140.807 205.345 140.233 204.568C137.379 200.702 133.447 201.377 131.395 206.631C127.01 208.842 126.967 212.508 129.658 216.035C131.37 218.279 131.605 221.314 133.107 223.716C132.952 223.914 132.791 224.106 132.637 224.303C129.812 227.932 127.351 231.828 125.287 235.937C125.789 231.334 125.19 226.678 123.539 222.352C121.866 218.32 118.731 214.924 115.97 211.439C112.653 207.252 105.852 209.079 105.268 214.386C105.262 214.438 105.257 214.489 105.251 214.541C105.661 214.772 106.063 215.017 106.456 215.277C106.949 215.606 107.331 216.077 107.553 216.627C107.774 217.177 107.823 217.781 107.695 218.36C107.567 218.939 107.266 219.466 106.833 219.871C106.4 220.277 105.855 220.542 105.268 220.632L105.208 220.641C105.354 222.118 105.612 223.582 105.981 225.019C102.438 238.706 110.086 243.691 121.005 243.915C121.246 244.038 121.481 244.162 121.722 244.279C119.649 250.15 118.348 256.265 117.853 262.47C117.573 266.131 117.59 269.809 117.903 273.468L117.884 273.338C117.093 269.27 114.921 265.599 111.735 262.946C107.002 259.062 100.316 257.631 95.2106 254.509C94.668 254.161 94.0371 253.976 93.3923 253.974C92.7475 253.973 92.1157 254.155 91.5714 254.501C91.0272 254.846 90.5931 255.34 90.3204 255.924C90.0478 256.507 89.9479 257.157 90.0326 257.795C90.0394 257.841 90.0464 257.886 90.0535 257.932C90.8146 258.241 91.5556 258.598 92.2722 259C92.6824 259.231 93.0838 259.477 93.4766 259.736C93.9701 260.065 94.3525 260.536 94.5736 261.086C94.7948 261.637 94.8444 262.241 94.7161 262.82C94.5877 263.399 94.2873 263.925 93.8542 264.331C93.4211 264.736 92.8756 265.001 92.2891 265.092L92.2289 265.101C92.1857 265.107 92.1486 265.113 92.1054 265.119C93.4058 268.222 95.231 271.077 97.5009 273.56C99.7158 285.508 109.229 286.642 119.405 283.162H119.411C120.527 288.01 122.145 292.728 124.238 297.241H141.481C141.543 297.05 141.599 296.852 141.654 296.661C140.058 296.761 138.456 296.666 136.883 296.377C138.162 294.808 139.442 293.228 140.721 291.659C140.75 291.63 140.776 291.599 140.801 291.566C141.45 290.764 142.105 289.967 142.754 289.164L142.755 289.163C142.789 286.703 142.506 284.248 141.913 281.859Z" fill="#CCCCCC"/>
<path d="M200.727 331.675C201.013 332.507 201.556 333.227 202.277 333.731C202.998 334.236 203.861 334.499 204.741 334.484L221.938 334.041C222.825 334.024 223.682 333.721 224.382 333.176C225.082 332.632 225.587 331.876 225.821 331.021L228.254 305.022C229.118 305.413 230.058 305.606 231.005 305.587C232.668 305.545 234.246 304.845 235.392 303.641C236.539 302.437 237.159 300.827 237.118 299.165C237.076 297.504 236.375 295.927 235.17 294.782C233.965 293.637 232.353 293.017 230.69 293.059C230.312 293.057 229.934 293.097 229.563 293.176C229.161 292.74 228.671 292.394 228.126 292.159C227.581 291.924 226.993 291.806 226.399 291.812L199.946 292.494C199.727 292.502 199.509 292.53 199.294 292.575C198.714 292.683 198.164 292.914 197.68 293.253C197.197 293.591 196.792 294.029 196.492 294.537C196.192 295.044 196.005 295.611 195.943 296.197C195.88 296.783 195.944 297.376 196.131 297.935L200.727 331.675ZM228.753 303.257L230.485 297.061C230.682 296.345 230.687 295.59 230.498 294.872C230.582 294.872 230.656 294.832 230.74 294.832C231.928 294.808 233.076 295.255 233.934 296.075C234.792 296.896 235.289 298.022 235.317 299.208C235.345 300.394 234.901 301.543 234.082 302.403C233.264 303.262 232.137 303.762 230.95 303.793C230.183 303.817 229.423 303.632 228.753 303.257Z" fill="#CCCCCC"/>
<path d="M199.294 292.575C199.858 295.795 206.194 298.058 213.813 297.665C220.819 297.342 226.547 294.884 227.597 291.971C227.208 291.857 226.804 291.803 226.4 291.812L199.946 292.494C199.727 292.502 199.509 292.53 199.294 292.575Z" fill="white"/>
<path d="M0.920986 429.307L580.079 429.545C580.323 429.545 580.557 429.448 580.73 429.275C580.903 429.102 581 428.868 581 428.624C581 428.38 580.903 428.146 580.73 427.974C580.557 427.801 580.323 427.704 580.079 427.704L0.920986 427.467C0.676724 427.467 0.442469 427.564 0.26975 427.736C0.0970308 427.909 0 428.143 0 428.387C0 428.631 0.0970308 428.865 0.26975 429.037C0.442469 429.21 0.676724 429.307 0.920986 429.307Z" fill="#CACACA"/>
<path d="M325.753 223.66C324.178 223.718 322.687 224.387 321.599 225.525C320.51 226.664 319.909 228.182 319.923 229.756C319.931 230.076 319.966 230.395 320.026 230.71L301.85 241.431L304.05 252.56L327.36 235.183C328.645 234.831 329.777 234.064 330.58 233.001C331.383 231.939 331.811 230.64 331.798 229.309C331.783 228.552 331.619 227.805 331.315 227.111C331.011 226.417 330.573 225.789 330.026 225.264C329.48 224.739 328.835 224.327 328.129 224.051C327.423 223.774 326.669 223.64 325.911 223.655C325.858 223.656 325.805 223.658 325.753 223.66Z" fill="#FFB6B6"/>
<path d="M310.863 249.219C310.377 248.568 310.168 248.296 310.057 248.371C309.773 248.542 310.047 250.842 308.045 254.849C305.227 260.479 275.678 269.101 275.678 269.101L272.04 262.447L256.038 233.204L250.523 209.765C250.33 208.948 250.236 208.111 250.244 207.271C255.162 203.813 260.384 200.81 265.846 198.298C268.029 199.535 269.693 201.516 270.534 203.878L281.549 234.735L285.945 247.055C285.945 247.055 293.699 241.516 296.511 242.533C299.319 243.556 300.117 242.121 298.281 237.529C296.446 232.937 299.201 237.664 302.407 237.964C305.619 238.269 302.407 237.964 303.924 236.016C305.442 234.067 315.252 232.97 315.252 232.97L315.461 233.405L319.262 241.219L320.351 243.463C320.351 243.463 316.32 247.832 315.348 248.703C314.371 249.58 314.069 249.52 314.547 250.519C315.019 251.513 312.552 251.468 310.863 249.219Z" fill="#98F286"/>
</g>
<defs>
<clipPath id="clip0_26_777">
<rect width="581" height="430" fill="white"/>
</clipPath>
</defs>
</svg>
